<?xml version="1.0" standalone="no"?>
<!DOCTYPE svg PUBLIC "-//W3C//DTD SVG 20010904//EN"
 "http://www.w3.org/TR/2001/REC-SVG-20010904/DTD/svg10.dtd">
<svg version="1.0" xmlns="http://www.w3.org/2000/svg"
 width="2000.000000pt" height="2000.000000pt" viewBox="0 0 2000.000000 2000.000000"
 preserveAspectRatio="xMidYMid meet">
<metadata>
Created by potrace 1.14, written by Peter Selinger 2001-2017
</metadata>
<g transform="translate(0.000000,2000.000000) scale(0.100000,-0.100000)"
fill="#000000" stroke="none">
<path d="M2735 12979 c-117 -12 -267 -35 -355 -54 -14 -4 -36 -8 -49 -11 -60
-12 -185 -48 -281 -81 -450 -152 -813 -377 -1151 -713 -245 -245 -419 -479
-554 -750 -128 -255 -220 -506 -261 -710 -3 -14 -11 -52 -19 -85 -7 -33 -16
-84 -20 -114 -4 -30 -8 -62 -10 -71 -20 -105 -28 -537 -12 -695 28 -284 113
-610 229 -883 91 -215 256 -494 383 -650 7 -9 37 -46 66 -82 29 -36 116 -128
193 -206 286 -285 572 -479 944 -637 186 -80 437 -157 592 -182 19 -3 58 -10
85 -16 137 -27 289 -37 530 -34 138 2 261 6 275 9 14 3 54 9 90 12 36 3 67 7
70 9 3 2 26 6 50 10 140 20 462 112 595 169 561 242 971 565 1318 1038 31 43
57 81 57 84 0 4 11 21 24 38 60 80 179 304 251 476 45 107 117 325 131 394 2
10 8 33 13 50 13 38 58 300 66 381 15 149 19 384 10 510 -6 92 -16 188 -20
205 -2 8 -6 38 -10 65 -3 28 -8 59 -10 70 -3 11 -7 32 -10 48 -28 153 -84 344
-149 511 -203 521 -558 984 -1011 1319 -49 37 -95 71 -102 77 -7 5 -15 10 -18
10 -3 0 -32 17 -63 38 -321 215 -829 397 -1218 437 -32 3 -70 9 -84 12 -43 9
-481 11 -565 2z m188 -1583 c75 -4 145 -9 155 -10 9 -2 53 -7 97 -10 44 -4 91
-9 105 -11 46 -7 195 -27 225 -30 17 -2 46 -7 65 -10 19 -4 58 -11 85 -15 100
-18 111 -20 153 -30 23 -6 61 -14 85 -19 89 -20 224 -54 272 -68 327 -97 568
-195 830 -338 105 -57 140 -89 174 -156 27 -54 30 -69 27 -133 -7 -162 -122
-270 -286 -268 -49 0 -73 9 -220 85 -179 92 -331 158 -505 217 -94 32 -276 85
-326 95 -8 2 -44 10 -80 19 -70 17 -251 52 -314 61 -22 3 -51 7 -65 10 -14 2
-45 6 -70 9 -25 3 -54 8 -65 10 -11 2 -58 7 -104 11 -47 4 -92 8 -101 10 -10
2 -80 7 -156 11 -285 15 -719 6 -913 -20 -20 -3 -61 -8 -91 -11 -30 -3 -82
-11 -115 -17 -33 -5 -69 -11 -80 -13 -76 -11 -120 -21 -284 -62 -152 -38 -193
-44 -238 -39 -177 21 -287 193 -233 363 20 62 74 126 132 158 37 20 215 69
366 100 167 35 153 33 209 41 26 3 57 8 68 10 11 2 40 6 65 9 25 3 59 8 75 10
17 3 59 7 95 10 36 3 83 7 105 10 22 2 99 7 170 10 72 4 131 8 132 9 5 4 435
-2 556 -8z m-140 -1031 c55 -3 115 -8 135 -10 21 -2 69 -7 107 -12 39 -4 75
-8 80 -8 24 -3 122 -18 140 -21 11 -3 34 -6 50 -8 17 -3 66 -12 110 -21 80
-17 103 -22 140 -29 295 -60 754 -237 1042 -402 116 -67 127 -76 160 -132 53
-89 39 -198 -35 -275 -86 -90 -202 -95 -327 -16 -71 45 -227 123 -385 191
-137 60 -500 170 -640 194 -14 3 -59 11 -100 19 -41 7 -95 17 -120 21 -25 3
-54 8 -65 10 -11 2 -51 7 -90 10 -38 3 -72 7 -75 9 -12 8 -261 18 -420 18
-158 0 -333 -8 -400 -18 -14 -2 -52 -6 -85 -10 -85 -9 -257 -39 -345 -60 -3
-1 -21 -5 -40 -9 -19 -4 -73 -19 -120 -32 -46 -13 -105 -24 -131 -24 -164 0
-277 174 -211 323 41 91 100 125 317 178 267 66 501 101 775 115 69 3 126 7
127 8 5 4 316 -3 406 -9z m72 -979 c147 -15 171 -17 195 -21 14 -3 48 -7 75
-11 28 -3 68 -9 90 -14 22 -5 56 -12 75 -15 63 -11 272 -66 369 -97 184 -58
467 -185 592 -264 21 -13 42 -24 46 -24 5 0 22 -13 39 -28 105 -92 87 -249
-35 -312 -53 -26 -134 -21 -186 12 -172 108 -441 225 -672 292 -107 31 -363
82 -453 91 -36 4 -77 8 -93 10 -177 22 -528 22 -732 0 -16 -1 -61 -6 -100 -10
-38 -4 -77 -9 -85 -10 -8 -1 -40 -6 -70 -10 -30 -4 -64 -9 -75 -11 -11 -3 -36
-7 -55 -10 -19 -3 -91 -17 -160 -31 -69 -14 -143 -27 -165 -28 -109 -7 -197
85 -190 197 6 84 71 156 156 172 13 2 69 13 124 25 55 11 114 23 130 26 17 3
56 10 87 15 32 6 77 13 100 15 24 3 75 9 113 14 109 15 168 21 289 27 61 4
112 7 114 9 5 4 419 -3 477 -9z"/>
<path d="M15483 11589 c-70 -27 -146 -97 -177 -163 -68 -145 -31 -306 93 -404
70 -55 135 -76 225 -70 288 19 414 367 206 567 -30 28 -72 57 -103 68 -72 28
-176 29 -244 2z"/>
<path d="M16845 11479 c-247 -40 -415 -190 -476 -426 -18 -70 -27 -158 -32
-308 l-2 -50 -118 -1 c-89 -1 -121 -4 -127 -14 -11 -17 -10 -423 0 -440 5 -9
44 -13 128 -13 l120 -1 0 -800 c0 -711 2 -801 16 -811 18 -14 483 -15 504 -2
9 6 12 180 12 811 l0 802 216 0 216 -1 331 -793 330 -793 -21 -44 c-28 -58
-77 -112 -123 -135 -67 -35 -227 -18 -330 35 -54 28 -68 21 -101 -52 -16 -38
-43 -95 -58 -128 -63 -135 -80 -180 -76 -192 3 -8 38 -29 78 -47 164 -74 239
-91 423 -91 200 0 294 28 415 124 122 97 235 288 331 561 12 36 25 70 29 75 4
6 15 33 24 60 10 28 24 64 30 80 7 17 19 46 26 65 7 19 19 50 27 68 8 18 23
56 33 85 10 29 59 158 110 287 50 129 120 312 156 405 35 94 69 179 74 190 11
23 225 580 246 639 24 66 24 66 -260 66 -138 0 -256 -4 -263 -8 -11 -7 -47
-105 -188 -512 -24 -69 -71 -204 -105 -300 -34 -96 -84 -238 -111 -315 -26
-77 -59 -169 -72 -205 -13 -36 -26 -72 -29 -80 -3 -8 -11 4 -20 30 -20 56 -36
97 -188 495 -67 176 -128 334 -135 350 -7 17 -52 134 -99 260 -47 127 -92 241
-99 255 l-13 25 -408 3 -408 2 5 83 c8 130 38 191 110 229 35 18 58 21 132 20
50 0 97 -3 105 -5 8 -2 50 -12 93 -22 49 -12 81 -15 87 -9 5 5 10 99 10 219 1
242 9 224 -103 249 -40 9 -83 19 -97 22 -42 9 -302 12 -355 3z"/>
<path d="M7825 11383 c-445 -52 -747 -312 -803 -693 -4 -25 -6 -92 -6 -150 4
-326 168 -541 516 -681 49 -20 253 -86 288 -94 8 -2 78 -19 155 -38 354 -90
484 -159 520 -279 68 -230 -113 -397 -431 -396 -286 0 -519 92 -786 311 -49
40 -69 41 -99 3 -9 -12 -73 -88 -143 -171 -69 -82 -126 -157 -126 -167 0 -21
41 -60 139 -132 223 -163 494 -275 754 -311 27 -4 59 -9 70 -11 30 -7 326 -6
357 0 13 3 42 8 65 12 250 36 474 161 605 339 151 205 191 529 94 773 -95 238
-335 394 -797 517 -53 14 -107 28 -120 31 -12 3 -26 6 -32 8 -318 87 -442 156
-480 270 -19 54 -12 152 13 201 130 252 605 234 1010 -39 46 -31 89 -56 97
-56 7 0 44 43 82 95 37 53 93 131 124 174 84 117 85 118 57 148 -38 40 -194
141 -292 187 -152 73 -301 118 -461 141 -48 7 -328 13 -370 8z"/>
<path d="M14060 11240 c-12 -8 -15 -51 -15 -277 l0 -268 -114 -2 c-63 -1 -121
-5 -128 -7 -10 -4 -13 -53 -13 -226 0 -189 2 -221 15 -226 9 -4 64 -7 123 -9
59 -1 109 -3 112 -4 3 0 5 -259 6 -574 1 -637 3 -656 69 -794 62 -132 171
-217 330 -259 52 -13 107 -18 215 -19 170 0 258 17 372 74 l73 36 3 212 c2
203 2 212 -17 218 -11 3 -39 -3 -63 -14 -97 -44 -244 -63 -317 -42 -54 16 -96
51 -116 95 -17 38 -18 81 -19 549 -1 335 2 511 9 516 5 4 122 8 258 7 137 -1
254 2 260 6 14 9 22 426 8 447 -7 10 -61 13 -270 13 -233 1 -261 2 -262 17 -1
9 -2 130 -3 269 -1 212 -4 254 -16 262 -20 13 -480 13 -500 0z"/>
<path d="M10368 10735 c-2 -1 -31 -5 -66 -8 -51 -5 -89 -13 -152 -32 -3 -1
-18 -5 -34 -10 -76 -21 -229 -125 -308 -210 -27 -27 -48 -45 -48 -40 -1 6 -2
63 -3 127 -1 64 -5 120 -9 124 -12 11 -499 7 -511 -5 -15 -15 -13 -2657 3
-2676 10 -13 50 -15 247 -15 134 0 242 4 253 10 17 9 18 32 18 407 1 219 1
408 1 421 1 21 7 18 56 -30 112 -107 262 -187 410 -219 80 -17 294 -16 370 1
33 8 62 14 65 15 30 6 128 44 180 70 114 57 244 164 315 260 17 22 35 45 41
52 20 21 93 168 118 239 68 188 90 485 52 680 -45 227 -146 423 -292 568 -126
125 -318 225 -489 255 -58 10 -211 22 -217 16z m66 -486 c177 -47 314 -181
375 -369 59 -179 41 -415 -42 -571 -65 -121 -186 -219 -320 -261 -18 -5 -70
-11 -117 -13 -248 -12 -457 135 -542 380 -32 93 -38 132 -38 235 0 91 5 126
26 199 35 124 124 251 224 322 112 80 298 113 434 78z"/>
<path d="M12565 10732 c-276 -19 -524 -131 -716 -322 -166 -165 -261 -349
-304 -590 -21 -116 -11 -381 16 -432 5 -10 8 -18 5 -18 -12 0 30 -113 75 -205
127 -258 344 -450 615 -543 470 -161 991 -9 1280 375 62 81 131 215 163 314
22 68 24 74 36 149 4 25 9 54 11 65 7 34 6 201 -1 252 -11 79 -12 85 -30 153
-109 424 -483 743 -931 795 -71 8 -162 11 -219 7z m268 -506 c173 -65 289
-188 355 -376 23 -66 26 -91 27 -205 0 -144 -12 -200 -68 -315 -45 -92 -149
-194 -248 -242 -95 -46 -109 -50 -244 -54 -94 -2 -121 0 -182 20 -93 30 -154
67 -225 134 -175 166 -234 445 -146 697 30 87 73 152 143 220 86 83 142 111
300 149 11 3 65 3 120 2 77 -3 115 -10 168 -30z"/>
<path d="M15393 10692 c-28 -2 -46 -9 -51 -20 -5 -9 -8 -473 -8 -1030 1 -938
2 -1015 18 -1026 20 -14 491 -17 505 -3 13 14 11 2046 -2 2064 -9 12 -47 15
-215 16 -113 1 -224 1 -247 -1z"/>
<path d="M19598 10690 c-116 -21 -230 -132 -256 -250 -21 -100 14 -222 85
-295 127 -131 334 -134 463 -6 63 62 95 140 94 231 -1 207 -182 356 -386 320z
m209 -66 c57 -33 88 -68 119 -132 85 -178 -43 -399 -239 -415 -274 -22 -423
310 -225 505 46 45 67 55 172 82 28 7 135 -18 173 -40z"/>
<path d="M19530 10380 l0 -170 33 0 34 0 -1 57 -1 57 36 2 c33 2 38 -2 75 -56
34 -51 44 -59 77 -62 20 -2 37 -1 37 3 0 3 -19 32 -42 64 -23 33 -37 60 -31
62 37 13 71 72 65 113 -7 46 -15 58 -51 78 -32 18 -54 22 -135 22 l-96 0 0
-170z m206 85 c14 -21 15 -31 6 -50 -7 -14 -20 -26 -29 -26 -10 -1 -41 -3 -68
-4 l-50 -2 1 51 c1 28 2 52 3 54 0 1 28 2 61 2 53 0 61 -3 76 -25z"/>
</g>
</svg>
